<svg width="62" height="27" viewBox="0 0 62 27" fill="none" xmlns="http://www.w3.org/2000/svg">
<path d="M1.376 8.246H6.524V26H1.376V8.246ZM3.95 5.771C3.004 5.771 2.234 5.496 1.64 4.946C1.046 4.396 0.749 3.714 0.749 2.9C0.749 2.086 1.046 1.404 1.64 0.853999C2.234 0.303998 3.004 0.028998 3.95 0.028998C4.896 0.028998 5.666 0.292999 6.26 0.821C6.854 1.349 7.151 2.009 7.151 2.801C7.151 3.659 6.854 4.374 6.26 4.946C5.666 5.496 4.896 5.771 3.95 5.771ZM19.7498 26.264C17.8798 26.264 16.1968 25.879 14.7008 25.109C13.2268 24.317 12.0718 23.228 11.2358 21.842C10.3998 20.456 9.98178 18.883 9.98178 17.123C9.98178 15.363 10.3998 13.79 11.2358 12.404C12.0718 11.018 13.2268 9.94 14.7008 9.17C16.1968 8.378 17.8798 7.982 19.7498 7.982C21.6198 7.982 23.2918 8.378 24.7658 9.17C26.2398 9.94 27.3948 11.018 28.2308 12.404C29.0668 13.79 29.4848 15.363 29.4848 17.123C29.4848 18.883 29.0668 20.456 28.2308 21.842C27.3948 23.228 26.2398 24.317 24.7658 25.109C23.2918 25.879 21.6198 26.264 19.7498 26.264ZM19.7498 22.04C21.0698 22.04 22.1478 21.6 22.9838 20.72C23.8418 19.818 24.2708 18.619 24.2708 17.123C24.2708 15.627 23.8418 14.439 22.9838 13.559C22.1478 12.657 21.0698 12.206 19.7498 12.206C18.4298 12.206 17.3408 12.657 16.4828 13.559C15.6248 14.439 15.1958 15.627 15.1958 17.123C15.1958 18.619 15.6248 19.818 16.4828 20.72C17.3408 21.6 18.4298 22.04 19.7498 22.04ZM32.9258 1.514H38.0738V26H32.9258V1.514ZM51.2996 26.264C49.4296 26.264 47.7466 25.879 46.2506 25.109C44.7766 24.317 43.6216 23.228 42.7856 21.842C41.9496 20.456 41.5316 18.883 41.5316 17.123C41.5316 15.363 41.9496 13.79 42.7856 12.404C43.6216 11.018 44.7766 9.94 46.2506 9.17C47.7466 8.378 49.4296 7.982 51.2996 7.982C53.1696 7.982 54.8416 8.378 56.3156 9.17C57.7896 9.94 58.9446 11.018 59.7806 12.404C60.6166 13.79 61.0346 15.363 61.0346 17.123C61.0346 18.883 60.6166 20.456 59.7806 21.842C58.9446 23.228 57.7896 24.317 56.3156 25.109C54.8416 25.879 53.1696 26.264 51.2996 26.264ZM51.2996 22.04C52.6196 22.04 53.6976 21.6 54.5336 20.72C55.3916 19.818 55.8206 18.619 55.8206 17.123C55.8206 15.627 55.3916 14.439 54.5336 13.559C53.6976 12.657 52.6196 12.206 51.2996 12.206C49.9796 12.206 48.8906 12.657 48.0326 13.559C47.1746 14.439 46.7456 15.627 46.7456 17.123C46.7456 18.619 47.1746 19.818 48.0326 20.72C48.8906 21.6 49.9796 22.04 51.2996 22.04Z" fill="url(#paint0_linear_1145_15)"/>
<defs>
<linearGradient id="paint0_linear_1145_15" x1="31" y1="-6" x2="31" y2="34" gradientUnits="userSpaceOnUse">
<stop stop-color="#86C232"/>
<stop offset="1" stop-color="#61892F"/>
</linearGradient>
</defs>
</svg>
